<svg width="50" height="50" viewBox="0 0 50 50" fill="none" xmlns="http://www.w3.org/2000/svg">
<path d="M16.5909 29.6667C15.3608 29.6667 14.3636 30.6616 14.3636 31.8889C14.3636 33.1162 15.3608 34.1111 16.5909 34.1111C17.821 34.1111 18.8182 33.1162 18.8182 31.8889C18.8182 30.6616 17.821 29.6667 16.5909 29.6667Z" fill="#46A0F5"/>
<path d="M23.2727 31.8889C23.2727 30.6616 24.2699 29.6667 25.5 29.6667C26.7301 29.6667 27.7273 30.6616 27.7273 31.8889C27.7273 33.1162 26.7301 34.1111 25.5 34.1111C24.2699 34.1111 23.2727 33.1162 23.2727 31.8889Z" fill="#46A0F5"/>
<path d="M34.4091 29.6667C33.179 29.6667 32.1818 30.6616 32.1818 31.8889C32.1818 33.1162 33.179 34.1111 34.4091 34.1111C35.6392 34.1111 36.6364 33.1162 36.6364 31.8889C36.6364 30.6616 35.6392 29.6667 34.4091 29.6667Z" fill="#46A0F5"/>
<path fill-rule="evenodd" clip-rule="evenodd" d="M7.68182 3C3.99155 3 1 5.98477 1 9.66667V36.3333C1 40.0152 3.99155 43 7.68182 43H43.3182C47.0084 43 50 40.0152 50 36.3333V9.66667C50 5.98477 47.0084 3 43.3182 3H7.68182ZM43.3182 7.44444H7.68182C6.45173 7.44444 5.45455 8.43937 5.45455 9.66667V11.8889H45.5455V9.66667C45.5455 8.43937 44.5483 7.44444 43.3182 7.44444ZM5.45455 36.3333V16.3333H45.5455V36.3333C45.5455 37.5606 44.5483 38.5556 43.3182 38.5556H7.68182C6.45173 38.5556 5.45455 37.5606 5.45455 36.3333Z" fill="#46A0F5"/>
</svg>
